<?xml version="1.0" encoding="UTF-8" standalone="no"?>
<svg
   width="2400"
   height="2400"
   version="1.1"
   viewBox="0 0 1800 1800"
   id="svg458"
   sodipodi:docname="assets.svg"
   inkscape:version="1.2.1 (9c6d41e410, 2022-07-14)"
   xmlns:inkscape="http://www.inkscape.org/namespaces/inkscape"
   xmlns:sodipodi="http://sodipodi.sourceforge.net/DTD/sodipodi-0.dtd"
   xmlns:xlink="http://www.w3.org/1999/xlink"
   xmlns="http://www.w3.org/2000/svg"
   xmlns:svg="http://www.w3.org/2000/svg">
  <sodipodi:namedview
     id="namedview460"
     pagecolor="#ffffff"
     bordercolor="#666666"
     borderopacity="1.0"
     inkscape:showpageshadow="2"
     inkscape:pageopacity="0.0"
     inkscape:pagecheckerboard="0"
     inkscape:deskcolor="#d1d1d1"
     inkscape:document-units="px"
     showgrid="true"
     inkscape:zoom="1.0040916"
     inkscape:cx="670.25755"
     inkscape:cy="742.96008"
     inkscape:window-width="3840"
     inkscape:window-height="2050"
     inkscape:window-x="-12"
     inkscape:window-y="-12"
     inkscape:window-maximized="1"
     inkscape:current-layer="svg458"
     showguides="true">
    <inkscape:grid
       type="xygrid"
       id="grid2194"
       spacingx="90"
       spacingy="90"
       originx="0"
       originy="0" />
  </sodipodi:namedview>
  <defs
     id="defs368">
    <symbol
       id="v"
       overflow="visible">
      <path
         d="m 18.766,-1.125 c -0.96875,0.5 -1.9805,0.875 -3.0312,1.125 -1.043,0.25781 -2.1367,0.39062 -3.2812,0.39062 -3.3984,0 -6.0898,-0.94531 -8.0781,-2.8438 -1.9922,-1.9062 -2.9844,-4.4844 -2.9844,-7.7344 0,-3.2578 0.99219,-5.8359 2.9844,-7.7344 1.9883,-1.9062 4.6797,-2.8594 8.0781,-2.8594 1.1445,0 2.2383,0.13281 3.2812,0.39062 1.0508,0.25 2.0625,0.625 3.0312,1.125 v 4.2188 c -0.98047,-0.65625 -1.9453,-1.1406 -2.8906,-1.4531 -0.94922,-0.3125 -1.9492,-0.46875 -3,-0.46875 -1.875,0 -3.3516,0.60547 -4.4219,1.8125 -1.0742,1.1992 -1.6094,2.8555 -1.6094,4.9688 0,2.1055 0.53516,3.7617 1.6094,4.9688 1.0703,1.1992 2.5469,1.7969 4.4219,1.7969 1.0508,0 2.0508,-0.14844 3,-0.45312 0.94531,-0.3125 1.9102,-0.80078 2.8906,-1.4688 z"
         id="path302" />
    </symbol>
    <symbol
       id="d"
       overflow="visible">
      <path
         d="m 13.734,-11.141 c -0.4375,-0.19531 -0.87109,-0.34375 -1.2969,-0.4375 -0.41797,-0.10156 -0.83984,-0.15625 -1.2656,-0.15625 -1.2617,0 -2.2305,0.40625 -2.9062,1.2188 -0.67969,0.80469 -1.0156,1.9531 -1.0156,3.4531 v 7.0625 H 2.3591 v -15.312 h 4.8906 v 2.5156 c 0.625,-1 1.3438,-1.7266 2.1562,-2.1875 0.82031,-0.46875 1.8008,-0.70312 2.9375,-0.70312 0.16406,0 0.34375,0.01172 0.53125,0.03125 0.19531,0.01172 0.47656,0.03906 0.84375,0.07813 z"
         id="path305" />
    </symbol>
    <symbol
       id="c"
       overflow="visible">
      <path
         d="m 17.641,-7.7031 v 1.4062 H 6.188 c 0.125,1.1484 0.53906,2.0078 1.25,2.5781 0.70703,0.57422 1.7031,0.85938 2.9844,0.85938 1.0312,0 2.082,-0.14844 3.1562,-0.45312 1.082,-0.3125 2.1914,-0.77344 3.3281,-1.3906 v 3.7656 c -1.1562,0.4375 -2.3125,0.76562 -3.4688,0.98438 -1.1562,0.22656 -2.3125,0.34375 -3.4688,0.34375 -2.7734,0 -4.9297,-0.70312 -6.4688,-2.1094 -1.5312,-1.4062 -2.2969,-3.3789 -2.2969,-5.9219 0,-2.5 0.75391,-4.4609 2.2656,-5.8906 1.5078,-1.4375 3.582,-2.1562 6.2188,-2.1562 2.4062,0 4.332,0.73047 5.7812,2.1875 1.4453,1.4492 2.1719,3.3828 2.1719,5.7969 z m -5.0312,-1.625 c 0,-0.92578 -0.27344,-1.6719 -0.8125,-2.2344 -0.54297,-0.57031 -1.25,-0.85938 -2.125,-0.85938 -0.94922,0 -1.7188,0.26562 -2.3125,0.79688 -0.5937,0.53126 -0.96484,1.2969 -1.1094,2.2969 z"
         id="path308" />
    </symbol>
    <symbol
       id="b"
       overflow="visible">
      <path
         d="m 9.2188,-6.8906 c -1.0234,0 -1.793,0.17188 -2.3125,0.51562 -0.51172,0.34375 -0.76562,0.85547 -0.76562,1.5312 0,0.625 0.20703,1.1172 0.625,1.4688 0.41406,0.34375 0.98828,0.51562 1.7188,0.51562 0.92578,0 1.7031,-0.32812 2.3281,-0.98438 0.63281,-0.66406 0.95312,-1.4922 0.95312,-2.4844 v -0.5625 z m 7.4688,-1.8438 V 0 h -4.9219 v -2.2656 c -0.65625,0.92969 -1.3984,1.6055 -2.2188,2.0312 -0.82422,0.41406 -1.8242,0.625 -3,0.625 -1.5859,0 -2.8711,-0.45703 -3.8594,-1.375 -0.99219,-0.92578 -1.4844,-2.1289 -1.4844,-3.6094 0,-1.7891 0.61328,-3.1016 1.8438,-3.9375 1.2383,-0.84375 3.1797,-1.2656 5.8281,-1.2656 h 2.8906 v -0.39062 c 0,-0.76953 -0.30859,-1.332 -0.92188,-1.6875 -0.61719,-0.36328 -1.5703,-0.54688 -2.8594,-0.54688 -1.0547,0 -2.0312,0.10547 -2.9375,0.3125 -0.89844,0.21094 -1.7305,0.52344 -2.5,0.9375 v -3.7344 c 1.0391,-0.25 2.0859,-0.44141 3.1406,-0.57812 1.0625,-0.13281 2.125,-0.20312 3.1875,-0.20312 2.7578,0 4.75,0.54688 5.9688,1.6406 1.2266,1.0859 1.8438,2.8555 1.8438,5.3125 z"
         id="path311" />
    </symbol>
    <symbol
       id="a"
       overflow="visible">
      <path
         d="m 7.7031,-19.656 v 4.3438 H 12.75 v 3.5 H 7.7031 v 6.5 c 0,0.71094 0.14062,1.1875 0.42188,1.4375 0.28126,0.25 0.83594,0.375 1.6719,0.375 h 2.5156 v 3.5 h -4.1875 c -1.9375,0 -3.3125,-0.39844 -4.125,-1.2031 -0.80469,-0.8125 -1.2031,-2.1797 -1.2031,-4.1094 v -6.5 h -2.4219 v -3.5 h 2.4219 v -4.3438 z"
         id="path314" />
    </symbol>
    <symbol
       id="l"
       overflow="visible">
      <path
         d="m 12.766,-13.078 v -8.2031 h 4.9219 V -1e-4 H 12.766 v -2.2188 c -0.66797,0.90625 -1.4062,1.5703 -2.2188,1.9844 -0.8126,0.4141 -1.7578,0.625 -2.8281,0.625 -1.8867,0 -3.4336,-0.75 -4.6406,-2.25 -1.2109,-1.5 -1.8125,-3.4258 -1.8125,-5.7812 0,-2.3633 0.60156,-4.2969 1.8125,-5.7969 1.207,-1.5 2.7539,-2.25 4.6406,-2.25 1.0625,0 2,0.21484 2.8125,0.64062 0.82031,0.42969 1.5664,1.0859 2.2344,1.9688 z m -3.2188,9.9219 c 1.0391,0 1.8359,-0.37891 2.3906,-1.1406 0.55078,-0.76953 0.82812,-1.8828 0.82812,-3.3438 0,-1.457 -0.27734,-2.5664 -0.82812,-3.3281 -0.55469,-0.76953 -1.3516,-1.1562 -2.3906,-1.1562 -1.043,0 -1.8398,0.38672 -2.3906,1.1562 -0.55469,0.76172 -0.82812,1.8711 -0.82812,3.3281 0,1.4609 0.27344,2.5742 0.82812,3.3438 0.55078,0.76172 1.3477,1.1406 2.3906,1.1406 z"
         id="path317" />
    </symbol>
    <symbol
       id="k"
       overflow="visible">
      <path
         d="m 10.5,-3.1562 c 1.0508,0 1.8516,-0.37891 2.4062,-1.1406 0.55078,-0.76953 0.82812,-1.8828 0.82812,-3.3438 0,-1.457 -0.27734,-2.5664 -0.82812,-3.3281 -0.55469,-0.76953 -1.3555,-1.1562 -2.4062,-1.1562 -1.0547,0 -1.8594,0.38672 -2.4219,1.1562 -0.55469,0.77344 -0.82812,1.8828 -0.82812,3.3281 0,1.4492 0.27344,2.5586 0.82812,3.3281 0.5625,0.77344 1.3672,1.1562 2.4219,1.1562 z m -3.25,-9.9219 c 0.67578,-0.88281 1.4219,-1.5391 2.2344,-1.9688 0.82031,-0.42578 1.7656,-0.64062 2.8281,-0.64062 1.8945,0 3.4453,0.75 4.6562,2.25 1.207,1.5 1.8125,3.4336 1.8125,5.7969 0,2.3555 -0.60547,4.2812 -1.8125,5.7812 -1.2109,1.5 -2.7617,2.25 -4.6562,2.25 -1.0625,0 -2.0078,-0.21094 -2.8281,-0.625 C 8.6719,-0.6602 7.9258,-1.32032 7.25,-2.21882 V -2e-5 H 2.3594 v -21.281 H 7.25 Z"
         id="path320" />
    </symbol>
    <symbol
       id="j"
       overflow="visible">
      <path
         d="m 0.34375,-15.312 h 4.8906 l 4.125,10.391 3.5,-10.391 h 4.8906 l -6.4375,16.766 c -0.64844,1.6953 -1.4023,2.8828 -2.2656,3.5625 -0.86719,0.6875 -2,1.0312 -3.4062,1.0312 H 2.79685 V 2.8289 h 1.5312 c 0.83203,0 1.4375,-0.13672 1.8125,-0.40625 C 6.52336,2.16093 6.82024,1.69218 7.03117,1.01645 L 7.17179,0.59457 Z"
         id="path323" />
    </symbol>
    <symbol
       id="g"
       overflow="visible">
      <path
         d="m 2.5781,-20.406 h 8.7344 c 2.5938,0 4.582,0.57812 5.9688,1.7344 1.3945,1.1484 2.0938,2.7891 2.0938,4.9219 0,2.1367 -0.69922,3.7812 -2.0938,4.9375 -1.3867,1.1562 -3.375,1.7344 -5.9688,1.7344 H 7.8281 V 3e-4 h -5.25 z m 5.25,3.8125 v 5.7031 H 10.75 c 1.0195,0 1.8047,-0.25 2.3594,-0.75 0.5625,-0.5 0.84375,-1.2031 0.84375,-2.1094 0,-0.91406 -0.28125,-1.6172 -0.84375,-2.1094 -0.55469,-0.48828 -1.3398,-0.73438 -2.3594,-0.73438 z"
         id="path326" />
    </symbol>
    <symbol
       id="u"
       overflow="visible">
      <path
         d="m 14.312,-14.828 v 3.7188 c -1.043,-0.4375 -2.0547,-0.76562 -3.0312,-0.98438 -0.98047,-0.21875 -1.9023,-0.32812 -2.7656,-0.32812 -0.92969,0 -1.6211,0.11719 -2.0781,0.34375 -0.44922,0.23047 -0.67188,0.58984 -0.67188,1.0781 0,0.38672 0.17188,0.68359 0.51562,0.89062 0.34375,0.21094 0.95703,0.36719 1.8438,0.46875 l 0.85938,0.125 c 2.5078,0.32422 4.1953,0.85156 5.0625,1.5781 0.86328,0.73047 1.2969,1.8711 1.2969,3.4219 0,1.6367 -0.60547,2.8672 -1.8125,3.6875 -1.1992,0.8125 -2.9922,1.2188 -5.375,1.2188 -1.0234,0 -2.0742,-0.078125 -3.1562,-0.23438 -1.0742,-0.15625 -2.1797,-0.39453 -3.3125,-0.71875 v -3.7188 c 0.96875,0.48047 1.9609,0.83984 2.9844,1.0781 1.0312,0.23047 2.0781,0.34375 3.1406,0.34375 0.95703,0 1.6758,-0.12891 2.1562,-0.39062 0.47656,-0.26953 0.71875,-0.66406 0.71875,-1.1875 0,-0.4375 -0.16797,-0.75781 -0.5,-0.96875 -0.33594,-0.21875 -0.99609,-0.38281 -1.9844,-0.5 L 7.34339,-6.01551 c -2.1797,-0.26953 -3.7031,-0.77344 -4.5781,-1.5156 -0.875,-0.73828 -1.3125,-1.8594 -1.3125,-3.3594 0,-1.625 0.55078,-2.8281 1.6562,-3.6094 1.1133,-0.78906 2.8203,-1.1875 5.125,-1.1875 0.89453,0 1.8359,0.07422 2.8281,0.21875 1,0.13672 2.082,0.35156 3.25,0.64062 z"
         id="path329" />
    </symbol>
    <symbol
       id="f"
       overflow="visible">
      <path
         d="M 17.75,-9.3281 V 0 h -4.9219 v -7.1094 c 0,-1.3438 -0.03125,-2.2656 -0.09375,-2.7656 -0.0625,-0.5 -0.16797,-0.86719 -0.3125,-1.1094 -0.1875,-0.3125 -0.44922,-0.55469 -0.78125,-0.73438 -0.32422,-0.17578 -0.69531,-0.26562 -1.1094,-0.26562 -1.0234,0 -1.8242,0.39844 -2.4062,1.1875 -0.58594,0.78125 -0.875,1.8711 -0.875,3.2656 V -1e-4 H 2.3594 v -21.281 H 7.25 v 8.2031 c 0.73828,-0.88281 1.5195,-1.5391 2.3438,-1.9688 0.83203,-0.42578 1.75,-0.64062 2.75,-0.64062 1.7695,0 3.1133,0.54688 4.0312,1.6406 0.91406,1.0859 1.375,2.6562 1.375,4.7188 z"
         id="path332" />
    </symbol>
    <symbol
       id="i"
       overflow="visible">
      <path
         d="M 17.75,-9.3281 V 0 h -4.9219 v -7.1406 c 0,-1.3203 -0.03125,-2.2344 -0.09375,-2.7344 -0.0625,-0.5 -0.16797,-0.86719 -0.3125,-1.1094 -0.1875,-0.3125 -0.44922,-0.55469 -0.78125,-0.73438 -0.32422,-0.17578 -0.69531,-0.26562 -1.1094,-0.26562 -1.0234,0 -1.8242,0.39844 -2.4062,1.1875 -0.58594,0.78125 -0.875,1.8711 -0.875,3.2656 V -1e-4 H 2.3594 v -15.312 H 7.25 v 2.2344 c 0.73828,-0.88281 1.5195,-1.5391 2.3438,-1.9688 0.83203,-0.42578 1.75,-0.64062 2.75,-0.64062 1.7695,0 3.1133,0.54688 4.0312,1.6406 0.91406,1.0859 1.375,2.6562 1.375,4.7188 z"
         id="path335" />
    </symbol>
    <symbol
       id="t"
       overflow="visible">
      <path
         d="m 10.047,-11.359 c 1.1016,0 1.8945,-0.20312 2.375,-0.60938 0.47656,-0.41406 0.71875,-1.0938 0.71875,-2.0312 0,-0.92578 -0.24219,-1.5859 -0.71875,-1.9844 -0.48047,-0.40625 -1.2734,-0.60938 -2.375,-0.60938 H 7.8282 v 5.2344 z M 7.8282,-7.7184 V 4e-4 h -5.25 v -20.406 h 8.0312 c 2.6875,0 4.6562,0.45312 5.9062,1.3594 1.2578,0.89844 1.8906,2.3203 1.8906,4.2656 0,1.3555 -0.32812,2.4648 -0.98438,3.3281 -0.64844,0.86719 -1.625,1.5 -2.9375,1.9062 0.71875,0.16797 1.3594,0.54297 1.9219,1.125 0.57031,0.57422 1.1484,1.4492 1.7344,2.625 l 2.8594,5.7969 h -5.6094 l -2.4844,-5.0781 c -0.5,-1.0195 -1.0117,-1.7109 -1.5312,-2.0781 -0.51172,-0.375 -1.1953,-0.5625 -2.0469,-0.5625 z"
         id="path338" />
    </symbol>
    <symbol
       id="s"
       overflow="visible">
      <path
         d="M 7.25,-2.2188 V 5.8281 H 2.3594 v -21.141 H 7.25 v 2.2344 c 0.67578,-0.88281 1.4219,-1.5391 2.2344,-1.9688 0.82031,-0.42578 1.7656,-0.64062 2.8281,-0.64062 1.8945,0 3.4453,0.75 4.6562,2.25 1.207,1.5 1.8125,3.4336 1.8125,5.7969 0,2.3555 -0.60547,4.2812 -1.8125,5.7812 -1.2109,1.5 -2.7617,2.25 -4.6562,2.25 -1.0625,0 -2.0078,-0.21094 -2.8281,-0.625 C 8.6719,-0.6606 7.9258,-1.32072 7.25,-2.21922 Z m 3.25,-9.9062 c -1.0547,0 -1.8594,0.38672 -2.4219,1.1562 -0.55469,0.77344 -0.82812,1.8828 -0.82812,3.3281 0,1.4492 0.27344,2.5586 0.82812,3.3281 0.5625,0.77344 1.3672,1.1562 2.4219,1.1562 1.0508,0 1.8516,-0.37891 2.4062,-1.1406 0.55078,-0.76953 0.82812,-1.8828 0.82812,-3.3438 0,-1.457 -0.27734,-2.5664 -0.82812,-3.3281 -0.55469,-0.76953 -1.3555,-1.1562 -2.4062,-1.1562 z"
         id="path341" />
    </symbol>
    <symbol
       id="e"
       overflow="visible">
      <path
         d="m 9.6406,-12.188 c -1.0859,0 -1.9141,0.39062 -2.4844,1.1719 -0.57422,0.78125 -0.85938,1.9062 -0.85938,3.375 0,1.4688 0.28516,2.5938 0.85938,3.375 0.57031,0.77344 1.3984,1.1562 2.4844,1.1562 1.0625,0 1.875,-0.38281 2.4375,-1.1562 0.57031,-0.78125 0.85938,-1.9062 0.85938,-3.375 0,-1.4688 -0.28906,-2.5938 -0.85938,-3.375 -0.5625,-0.78125 -1.375,-1.1719 -2.4375,-1.1719 z m 0,-3.5 c 2.6328,0 4.6914,0.71484 6.1719,2.1406 1.4766,1.418 2.2188,3.3867 2.2188,5.9062 0,2.5117 -0.74219,4.4805 -2.2188,5.9062 C 14.332,-0.317 12.2734,0.39 9.6406,0.39 6.9922,0.39 4.9258,-0.31703 3.4375,-1.735 1.9453,-3.1608 1.2031,-5.1295 1.2031,-7.6412 c 0,-2.5195 0.74219,-4.4883 2.2344,-5.9062 1.4883,-1.4258 3.5547,-2.1406 6.2031,-2.1406 z"
         id="path344" />
    </symbol>
    <symbol
       id="r"
       overflow="visible">
      <path
         d="M 2.3594,-21.281 H 7.25 V 0 H 2.3594 Z"
         id="path347" />
    </symbol>
    <symbol
       id="h"
       overflow="visible">
      <path
         d="m 2.1875,-5.9688 v -9.3438 h 4.9219 v 1.5312 c 0,0.83594 -0.00781,1.875 -0.015625,3.125 -0.011719,1.25 -0.015625,2.0859 -0.015625,2.5 0,1.2422 0.03125,2.1328 0.09375,2.6719 0.070313,0.54297 0.17969,0.93359 0.32812,1.1719 0.20703,0.32422 0.47266,0.57422 0.79688,0.75 0.32031,0.16797 0.69141,0.25 1.1094,0.25 1.0195,0 1.8203,-0.39062 2.4062,-1.1719 0.58203,-0.78125 0.875,-1.8672 0.875,-3.2656 v -7.5625 h 4.8906 V -6e-4 H 12.6875 V -2.2194 C 11.94531,-1.32096 11.1641,-0.6608 10.3437,-0.235 9.51948,0.17906 8.6093,0.39 7.6093,0.39 5.8476,0.39 4.5038,-0.14906 3.5781,-1.235 2.64841,-2.317 2.1875,-3.8952 2.1875,-5.9694 Z"
         id="path350" />
    </symbol>
    <symbol
       id="q"
       overflow="visible">
      <path
         d="m 12.422,-21.281 v 3.2188 H 9.7189 c -0.6875,0 -1.1719,0.125 -1.4531,0.375 -0.27344,0.25 -0.40625,0.6875 -0.40625,1.3125 v 1.0625 h 4.1875 v 3.5 H 7.85955 V -2e-4 h -4.8906 v -11.812 h -2.4375 v -3.5 h 2.4375 v -1.0625 c 0,-1.6641 0.46094,-2.8984 1.3906,-3.7031 0.92578,-0.80078 2.3672,-1.2031 4.3281,-1.2031 z"
         id="path353" />
    </symbol>
    <symbol
       id="p"
       overflow="visible">
      <path
         d="m 16.547,-12.766 c 0.61328,-0.94531 1.3477,-1.6719 2.2031,-2.1719 0.85156,-0.5 1.7891,-0.75 2.8125,-0.75 1.7578,0 3.0977,0.54688 4.0156,1.6406 0.92578,1.0859 1.3906,2.6562 1.3906,4.7188 V -4e-4 h -4.9219 v -7.9844 -0.35938 c 0.0078,-0.13281 0.01563,-0.32031 0.01563,-0.5625 0,-1.082 -0.16406,-1.8633 -0.48438,-2.3438 -0.3125,-0.48828 -0.82422,-0.73438 -1.5312,-0.73438 -0.92969,0 -1.6484,0.38672 -2.1562,1.1562 -0.51172,0.76172 -0.77344,1.8672 -0.78125,3.3125 v 7.5156 h -4.9219 v -7.9844 c 0,-1.6953 -0.14844,-2.7852 -0.4375,-3.2656 -0.29297,-0.48828 -0.8125,-0.73438 -1.5625,-0.73438 -0.9375,0 -1.6641,0.38672 -2.1719,1.1562 -0.51172,0.76172 -0.76562,1.8594 -0.76562,3.2969 v 7.5312 h -4.9219 v -15.312 h 4.9219 v 2.2344 c 0.60156,-0.86328 1.2891,-1.5156 2.0625,-1.9531 0.78125,-0.4375 1.6406,-0.65625 2.5781,-0.65625 1.0625,0 2,0.25781 2.8125,0.76562 0.8125,0.51172 1.4258,1.2305 1.8438,2.1562 z"
         id="path356" />
    </symbol>
    <symbol
       id="o"
       overflow="visible">
      <path
         d="m 2.5781,-20.406 h 5.875 l 7.4219,14 v -14 h 4.9844 V 0 h -5.875 L 7.5625,-14 V 0 H 2.5781 Z"
         id="path359" />
    </symbol>
    <symbol
       id="n"
       overflow="visible">
      <path
         d="M 2.3594,-15.312 H 7.25 v 15.031 c 0,2.0508 -0.49609,3.6172 -1.4844,4.7031 -0.98047,1.082 -2.4062,1.625 -4.2812,1.625 H -0.9375 V 2.8283 h 0.85938 c 0.92578,0 1.5625,-0.21094 1.9062,-0.625 0.35156,-0.41797 0.53125,-1.2461 0.53125,-2.4844 z m 0,-5.9688 H 7.25 v 4 H 2.3594 Z"
         id="path362" />
    </symbol>
    <symbol
       id="m"
       overflow="visible">
      <path
         d="m 14.719,-14.828 v 3.9844 c -0.65625,-0.45703 -1.3242,-0.79688 -2,-1.0156 -0.66797,-0.21875 -1.3594,-0.32812 -2.0781,-0.32812 -1.3672,0 -2.4336,0.40234 -3.2031,1.2031 -0.76172,0.79297 -1.1406,1.9062 -1.1406,3.3438 0,1.4297 0.37891,2.543 1.1406,3.3438 0.76953,0.79297 1.8359,1.1875 3.2031,1.1875 0.75781,0 1.4844,-0.10938 2.1719,-0.32812 0.6875,-0.22656 1.3203,-0.56641 1.9062,-1.0156 v 4 c -0.76172,0.28125 -1.5391,0.48828 -2.3281,0.625 -0.78125,0.14453 -1.5742,0.21875 -2.375,0.21875 -2.7617,0 -4.9219,-0.70703 -6.4844,-2.125 -1.5547,-1.4141 -2.3281,-3.3828 -2.3281,-5.9062 0,-2.5312 0.77344,-4.5039 2.3281,-5.9219 1.5625,-1.4141 3.7227,-2.125 6.4844,-2.125 0.80078,0 1.5938,0.07422 2.375,0.21875 0.78125,0.13672 1.5547,0.35156 2.3281,0.64062 z"
         id="path365" />
    </symbol>
    <linearGradient
       inkscape:collect="always"
       xlink:href="#linearGradient840"
       id="linearGradient842"
       x1="95.627968"
       y1="171.13391"
       x2="93.738098"
       y2="293.97617"
       gradientUnits="userSpaceOnUse"
       gradientTransform="translate(0,-466.99994)" />
    <linearGradient
       inkscape:collect="always"
       id="linearGradient840">
      <stop
         style="stop-color:#c9283e;stop-opacity:1"
         offset="0"
         id="stop836" />
      <stop
         style="stop-color:#f0433a;stop-opacity:1"
         offset="1"
         id="stop838" />
    </linearGradient>
    <linearGradient
       inkscape:collect="always"
       xlink:href="#linearGradient1226"
       id="linearGradient1228"
       x1="44.790176"
       y1="245.78421"
       x2="43.65625"
       y2="263.73807"
       gradientUnits="userSpaceOnUse" />
    <linearGradient
       inkscape:collect="always"
       id="linearGradient1226">
      <stop
         style="stop-color:#67003e;stop-opacity:1"
         offset="0"
         id="stop1222" />
      <stop
         style="stop-color:#400026;stop-opacity:1"
         offset="1"
         id="stop1224" />
    </linearGradient>
    <linearGradient
       inkscape:collect="always"
       xlink:href="#linearGradient1218"
       id="linearGradient1220"
       x1="128.03943"
       y1="256.17853"
       x2="129.74033"
       y2="282.06992"
       gradientUnits="userSpaceOnUse" />
    <linearGradient
       inkscape:collect="always"
       id="linearGradient1218">
      <stop
         style="stop-color:#740045;stop-opacity:1"
         offset="0"
         id="stop1214" />
      <stop
         style="stop-color:#2e001b;stop-opacity:1"
         offset="1"
         id="stop1216" />
    </linearGradient>
    <linearGradient
       inkscape:collect="always"
       xlink:href="#linearGradient1204"
       id="linearGradient1206"
       x1="67.46875"
       y1="269.02975"
       x2="67.46875"
       y2="296.99997"
       gradientUnits="userSpaceOnUse" />
    <linearGradient
       inkscape:collect="always"
       id="linearGradient1204">
      <stop
         style="stop-color:#820333;stop-opacity:1;"
         offset="0"
         id="stop1200" />
      <stop
         style="stop-color:#540032;stop-opacity:1"
         offset="1"
         id="stop1202" />
    </linearGradient>
    <filter
       inkscape:collect="always"
       style="color-interpolation-filters:sRGB"
       id="filter1196"
       x="-0.1332"
       width="1.2664"
       y="-0.1332"
       height="1.2664">
      <feGaussianBlur
         inkscape:collect="always"
         stdDeviation="0.9335067"
         id="feGaussianBlur1198" />
    </filter>
  </defs>
  <g
     inkscape:groupmode="layer"
     id="layer1"
     inkscape:label="fond"
     style="fill:#ff7f2a" />
  <g
     id="menuBackground"
     transform="matrix(2.8395511,0,0,2.8346457,29.727952,-457.8897)"
     inkscape:label="menuBackground">
    <title
       id="title255">menuBackground</title>
    <rect
       style="fill:url(#linearGradient842);fill-opacity:1;stroke:none;stroke-width:3.86651;stroke-miterlimit:4;stroke-dasharray:none;stroke-opacity:1"
       id="rect834"
       width="190.5"
       height="127"
       x="0"
       y="-296.99997"
       transform="scale(1,-1)" />
    <path
       inkscape:connector-curvature="0"
       id="path846"
       d="m 0.26726951,269.47122 c 0,0 18.57873449,-22.37546 52.34760749,-17.73311 32.792671,4.50814 47.642093,39.32857 93.139683,36.21825 45.49759,-3.11033 7.22052,-28.47438 45.20558,-12.07068 l -0.39697,21.11429 H -0.26726951 Z"
       style="fill:url(#linearGradient1228);fill-opacity:1;stroke:none;stroke-width:0.264583px;stroke-linecap:butt;stroke-linejoin:miter;stroke-opacity:1"
       sodipodi:nodetypes="cszcccc" />
    <path
       sodipodi:nodetypes="cszcccc"
       style="fill:url(#linearGradient1220);fill-opacity:1;stroke:none;stroke-width:0.264583px;stroke-linecap:butt;stroke-linejoin:miter;stroke-opacity:1"
       d="m 0.26726951,269.47122 c 0,0 21.85885149,-1.0287 43.15760549,1.28332 21.864871,2.37347 58.208345,-10.51881 79.137475,-14.3851 20.92914,-3.86628 30.41273,3.11254 68.39779,19.51624 l -0.39697,21.11429 H -0.26726951 Z"
       id="path848"
       inkscape:connector-curvature="0" />
    <path
       style="fill:url(#linearGradient1206);fill-opacity:1;stroke:none;stroke-width:0.264583px;stroke-linecap:butt;stroke-linejoin:miter;stroke-opacity:1"
       d="m 0.26726951,269.47122 c 0,0 17.63978849,-11.22532 39.55588949,-11.22532 21.916102,0 45.106278,29.94986 86.060791,18.97613 40.95451,-10.97373 64.67922,-22.45064 64.67922,-22.45064 v 42.22859 H -0.26726951 Z"
       id="path844"
       inkscape:connector-curvature="0" />
    <circle
       style="fill:#fce4ec;fill-opacity:1;stroke:none;stroke-width:2.11667;stroke-miterlimit:4;stroke-dasharray:none;stroke-opacity:1"
       id="path852"
       cx="137.37814"
       cy="188.06454"
       r="8.4099703" />
    <path
       inkscape:connector-curvature="0"
       id="path854"
       d="m 150.81138,192.03855 h 17.47205 c 0,0 0.0637,-4.24048 -4.24049,-4.24048 -4.30425,0 -4.37406,2.52537 -4.37406,2.52537 0,0 0.88613,-4.27263 -4.27263,-4.27263 -5.15876,0 -4.58487,5.98774 -4.58487,5.98774 z"
       style="fill:#f79691;fill-opacity:0.681818;stroke:none;stroke-width:0.0631257px;stroke-linecap:butt;stroke-linejoin:miter;stroke-opacity:1" />
    <path
       style="fill:#fbd0cd;fill-opacity:0.767677;stroke:none;stroke-width:0.110943px;stroke-linecap:butt;stroke-linejoin:miter;stroke-opacity:1"
       d="m 105.84607,199.26318 h 30.70713 c 0,0 0.11207,-7.45264 -7.45264,-7.45264 -7.56472,0 -7.68743,4.43834 -7.68743,4.43834 0,0 1.55739,-7.50915 -7.50915,-7.50915 -9.06654,0 -8.05791,10.52345 -8.05791,10.52345 z"
       id="path850"
       inkscape:connector-curvature="0" />
    <path
       style="fill:#f79691;fill-opacity:0.681818;stroke:none;stroke-width:0.11087px;stroke-linecap:butt;stroke-linejoin:miter;stroke-opacity:1"
       d="M 52.211406,193.20308 H 21.524607 c 0,0 -0.111878,-7.44771 7.447728,-7.44771 7.55971,0 7.682321,4.4354 7.682321,4.4354 0,0 -1.556343,-7.50417 7.504176,-7.50417 9.060519,0 8.052574,10.51648 8.052574,10.51648 z"
       id="path856"
       inkscape:connector-curvature="0" />
    <circle
       r="8.4099703"
       cy="188.06454"
       cx="137.37814"
       id="circle858"
       style="fill:#fce1ea;fill-opacity:1;stroke:none;stroke-width:2.11667;stroke-miterlimit:4;stroke-dasharray:none;stroke-opacity:1;filter:url(#filter1196)"
       transform="matrix(1.0841014,0,0,1.0841014,-11.553703,-15.816503)" />
  </g>
  <g
     id="menuTittle"
     transform="matrix(2.8348937,0,0,2.8322532,519.89668,100.29275)"
     style="image-rendering:auto"
     inkscape:label="menuTittle">
    <title
       id="title556">menuTittle</title>
    <path
       style="fill:#ff6600;stroke-width:0.158323"
       d="m 38.118058,27.886297 c -0.375341,-1.09673 -0.945905,-2.140318 -1.194467,-3.262539 -0.119836,-0.541033 -0.210502,-1.085673 -0.28142,-1.631269 -0.09936,-0.764393 -0.06879,-1.530121 -0.06879,-2.296536 0,-0.578691 0,-1.157382 0,-1.736073 0,-0.151887 -0.187966,-0.521163 0,-0.455661 0.31738,0.110596 0.621888,0.365616 0.913049,0.505784 0.902205,0.43433 1.92471,0.747093 2.870478,1.125485 2.314317,0.925936 5.212578,2.425415 7.99231,1.781638 3.048111,-0.705934 4.872386,-3.099468 6.097418,-5.098857 0.246225,-0.401862 0.906521,-1.986586 1.469636,-2.191734 0.345943,-0.12603 1.083295,1.576913 1.188215,1.836318 0.413773,1.023011 1.607015,5.820168 3.996155,5.454273 2.143838,-0.328328 3.496318,-2.110716 4.696576,-3.26254 0.487472,-0.4678 0.860203,-0.772674 1.26326,-1.275852 0.321061,-0.400812 1.204606,-1.846975 1.819845,-2.091489 0.370375,-0.147198 1.091808,1.083898 1.119425,1.125484 1.191005,1.793435 1.606486,4.284948 4.277574,5.303907 2.409812,0.919285 4.58184,0.368256 6.654006,-0.765513 0.741895,-0.405924 1.546681,-0.779392 2.245098,-1.225731 0.411616,-0.263047 1.687545,-1.581148 2.313891,-1.581148 0.347701,0 0.69398,0.686507 0.769213,0.815636 0.908499,1.559263 0.901281,4.346883 3.714739,4.793564 3.023661,0.480053 6.561838,-2.220267 8.480105,-3.617956 0.461591,-0.336324 0.9434,-0.899286 1.538426,-1.125485 0.3683,-0.140012 0.89041,1.617032 0.91305,1.68595 0.59176,1.801922 0.78927,3.353953 4.06494,3.007368 1.58135,-0.167317 3.32402,-0.813492 4.62779,-1.476345 0.55434,-0.281835 0.96465,-0.603844 1.40084,-0.970559 0.0179,-0.01509 0.48845,-0.46426 0.55659,-0.410097 0.10065,0.08 -0.0713,0.212654 -0.13759,0.30985 -0.35251,0.516583 -0.75737,1.013404 -1.11942,1.526468 -1.62924,2.308807 -3.06059,4.850007 -3.50836,7.445515 -0.3342,1.937213 0.46325,4.344725 3.71474,4.132855 0.43375,-0.02826 0.92328,-0.188287 1.33205,-0.305294 0.004,-10e-4 0.26363,-0.126154 0.28141,-0.100246 0.0879,0.128089 -0.70949,1.550514 -0.76921,1.681393 -0.67178,1.472391 -1.31576,2.967587 -1.75105,4.488269 -0.30678,1.071726 -0.45298,2.169029 -0.49405,3.262539 -0.0198,0.526853 -0.057,1.055739 0,1.581148 0.0377,0.347325 0.19027,0.788715 0.35021,1.120928 0.1182,0.24551 0.36149,0.810768 0.70042,0.970561 0.18859,0.08891 0.63779,-0.329249 0.70043,-0.40554 0.64589,-0.786692 0.48967,-2.139591 -1.25701,-1.836317 -0.70869,0.123049 -1.57266,0.49547 -2.10127,0.815634 -0.48172,0.29177 -0.91189,0.627412 -1.33205,0.966003 -1.19982,0.966901 -1.38656,1.24062 -2.31389,2.34666 -1.13217,1.350358 -2.19073,2.776245 -2.87673,4.283223 -0.14061,0.308864 -0.29698,0.694279 -0.35021,1.020682 -0.0119,0.0726 0.0863,0.497594 0,0.560464 -0.0258,0.01882 -1.239172,-1.20207 -1.257008,-1.221174 -0.629856,-0.674734 -1.322421,-1.340304 -1.894888,-2.041366 -0.755428,-0.92511 -1.25986,-1.963455 -1.819845,-2.957246 -0.112873,-0.200309 -0.5618,-1.596146 -1.194474,-1.480901 -0.947654,0.172621 -1.337082,1.455267 -1.538426,1.991242 -0.580308,1.544777 -0.884013,3.160025 -1.194467,4.743441 -0.08618,0.439529 -0.354058,2.15093 -0.981839,2.446905 -0.511707,0.24125 -1.299064,-0.899287 -1.400843,-1.020682 -0.925501,-1.103852 -2.298634,-4.268264 -4.346369,-4.438148 -2.948414,-0.244606 -5.711197,3.066064 -7.423214,4.48827 -0.470511,0.390862 -0.811559,0.878906 -1.475889,1.120928 -0.45216,0.164726 -0.961845,0.162065 -1.400844,-0.05012 -2.420214,-1.169791 -2.328685,-5.450097 -5.046788,-5.709444 -2.911282,-0.277779 -5.101338,2.692086 -6.372584,4.182978 -0.298035,0.349529 -1.038521,1.376098 -1.757308,1.376098 -0.937659,0 -1.554263,-0.716906 -1.957428,-1.22573 C 58.936291,54.1262 58.601334,53.243551 58.298957,52.364458 57.912526,51.241007 57.454933,48.69638 55.21585,48.69638 c -2.662895,0 -4.924657,3.04071 -6.235003,4.43359 -0.20241,0.215161 -1.151343,1.439515 -1.682261,1.275854 -0.519733,-0.160214 -0.862724,-0.803492 -1.050632,-1.120928 -1.326376,-2.240672 -0.673808,-7.301653 -5.822256,-6.579759 -2.472268,0.346649 -5.539404,2.786858 -7.354425,4.028051 -0.178527,0.122086 -1.439882,1.186512 -1.826099,1.020683 -0.984153,-0.422561 -1.173099,-2.976143 -1.257007,-3.722759 -0.181009,-1.610619 0.0011,-3.230771 -0.06879,-4.843685 -0.01737,-0.400828 -0.510991,-3.430741 -0.281419,-3.772881 0.185173,-0.275976 1.12724,-0.728997 1.469634,-1.125484 0.650775,-0.75359 0.310048,-1.964033 0,-2.752199 -0.409527,-1.041045 -1.271191,-1.913947 -1.963683,-2.857 -0.486905,-0.663082 -0.90445,-1.354272 -1.469634,-1.986687 -0.747168,-0.836044 -1.643101,-1.618655 -2.382684,-2.45146 -0.02491,-0.02806 -0.04583,-0.100246 0,-0.100246 0.179945,0 0.721025,0.205048 1.119425,0.205048 0.886449,0 1.301523,-0.473002 1.400842,-1.070805 0.278946,-1.678979 -1.197651,-3.079929 -1.957428,-4.593073 -0.486074,-0.968046 -0.836197,-1.979939 -0.981841,-3.007368 -0.0287,-0.202451 0,-0.407058 0,-0.610587 0,-0.08506 -0.116667,-0.255172 0,-0.255172 0.126441,0 0.998717,0.405892 1.119423,0.455663 1.26511,0.521629 2.509227,1.07147 3.783528,1.581146 3.077938,1.231071 6.767717,2.284469 10.162365,2.961803 1.177086,0.234863 3.202158,0.760955 4.415159,0.760955"
       id="path625" />
    <text
       xml:space="preserve"
       style="font-style:normal;font-variant:normal;font-weight:normal;font-stretch:normal;font-size:13.2396px;font-family:Algerian;-inkscape-font-specification:'Algerian, Normal';font-variant-ligatures:normal;font-variant-caps:normal;font-variant-numeric:normal;font-variant-east-asian:normal;fill:#ffd42a;stroke-width:1.10331"
       x="33.038578"
       y="41.894554"
       id="text733"
       transform="scale(1.0818918,0.92430684)"><tspan
         sodipodi:role="line"
         id="tspan731"
         style="font-style:normal;font-variant:normal;font-weight:normal;font-stretch:normal;font-size:13.2396px;font-family:Algerian;-inkscape-font-specification:'Algerian, Normal';font-variant-ligatures:normal;font-variant-caps:normal;font-variant-numeric:normal;font-variant-east-asian:normal;fill:#ffd42a;stroke-width:1.10331"
         x="33.038578"
         y="41.894554">FightMon</tspan></text>
  </g>
  <g
     id="playButton001"
     transform="matrix(1,0,0,0.99681694,-66.30018,-395.28928)"
     inkscape:label="playButton001">
    <title
       id="title353">playButton001</title>
    <path
       style="fill:#f9f9f9;stroke-width:0.74026"
       d="m 707.85952,426.65057 c -1.04933,0 -35.93979,21.14995 -35.93979,21.14995 l -0.78699,42.82213 36.98907,21.41106 36.72679,-21.41106 -0.26229,-42.29991 z"
       id="path2902" />
    <g
       id="g2498"
       transform="matrix(0.22717743,0,0,0.22717743,651.14533,405.25144)">
      <path
         d="m 88.336736,376.35142 158.720004,91.613 c 1.8398,1.0625 4.1094,1.0625 5.9492,0 l 159.25,-91.613 c 0.99219,-0.59375 1.8047,-1.4375 2.3633,-2.4492 0.5,-0.91406 0.77344,-1.9336 0.78906,-2.9766 v -183.75 c -0.0156,-1.0391 -0.28906,-2.0625 -0.78906,-2.9727 -0.53906,-0.89844 -1.2891,-1.6484 -2.1875,-2.1875 l -158.81,-92.050996 c -1.8398,-1.0625 -4.1094,-1.0625 -5.9492,0 L 88.242536,181.57742 c -0.89844,0.53906 -1.6484,1.2891 -2.1875,2.1875 -0.5,0.91016 -0.76953,1.9336 -0.78516,2.9727 v 183.75 c 0.0156,1.043 0.28516,2.0625 0.78516,2.9766 0.55859,1.0117 1.375,1.8555 2.3633,2.4492 z m 9.8008,-177.71 16.102004,9.2734 -0.004,142.01 -16.102004,9.2734 z m 304.320004,160.65 -16.102,-9.2734 v -142.01 l 16.102,-9.2734 z m -281.75,2.1016 122.94,70.961 v 18.551 l -138.95,-80.238 z m 129.59,-224.44 122.94,70.961 v 142.01 l -122.94,71.051 -122.94,-71.051 v -141.92 z m 6.5625,295.4 122.94,-71.051 16.102,9.2734 -139.04,80.328 z m 122.94,-235.72 -122.94,-71.051 v -18.551 l 139.04,80.324 z m -136.06,-71.051 -122.94,71.051 -16.102,-9.2734 139.04,-80.324 z"
         id="path2492" />
      <path
         d="m 231.83674,340.21142 75.074,-43.75 c 6.3203,-3.6602 10.215,-10.414 10.215,-17.719 0,-7.305 -3.8945,-14.059 -10.215,-17.719 l -75.074,-43.75 c -6.3008,-3.6367 -14.059,-3.6602 -20.379,-0.0586 -6.3164,3.6016 -10.254,10.285 -10.336,17.559 v 87.938 c 0.082,7.2734 4.0195,13.957 10.336,17.559 6.3203,3.6016 14.078,3.5781 20.379,-0.0586 z"
         id="path2494" />
      <path
         d="m 238.12678,314.93003 43.48379,-26.41363 c 3.66079,-2.20981 5.91663,-6.28733 5.91663,-10.69767 0,-4.41031 -2.25574,-8.48797 -5.91663,-10.69766 l -43.48379,-26.41362 c -3.6495,-2.19562 -8.14315,-2.20981 -11.80377,-0.0355 -3.65855,2.17442 -5.93925,6.20947 -5.98674,10.60106 v 53.09168 c 0.0474,4.39125 2.32815,8.42641 5.98674,10.60108 3.66079,2.17443 8.15415,2.16024 11.80377,-0.0354 z"
         id="path2496"
         style="fill:#ffffff;stroke-width:0.591349" />
    </g>
  </g>
  <g
     id="playButton002"
     transform="matrix(1,0,0,0.99681695,-130.12177,-306.21379)"
     inkscape:label="playButton002">
    <title
       id="title355">playButton002</title>
    <path
       style="fill:#f9f9f9;stroke-width:0.74026"
       d="m 857.91688,337.06558 c -1.04933,0 -35.93979,21.14995 -35.93979,21.14995 l -0.78699,42.82213 36.98907,21.41106 36.72679,-21.41106 -0.26229,-42.29991 z"
       id="path2902-9" />
    <path
       d="m 821.2708,401.165 36.05761,20.8124 c 0.41796,0.24138 0.93356,0.24138 1.35152,0 l 36.178,-20.8124 c 0.22541,-0.13489 0.40999,-0.32657 0.53689,-0.5564 0.11359,-0.20766 0.17571,-0.43927 0.17926,-0.67622 v -41.74385 c -0.004,-0.23606 -0.0657,-0.46856 -0.17926,-0.67533 -0.12246,-0.20411 -0.29285,-0.37448 -0.49695,-0.49695 l -36.07804,-20.91191 c -0.41797,-0.24138 -0.93357,-0.24138 -1.35153,0 l -36.2189,20.8124 c -0.2041,0.12246 -0.37448,0.29286 -0.49695,0.49695 -0.11359,0.20677 -0.17482,0.43927 -0.17837,0.67533 v 41.74386 c 0.004,0.23694 0.0648,0.46855 0.17837,0.67621 0.1269,0.22984 0.31237,0.42153 0.53689,0.5564 z m 2.22652,-40.3717 3.65802,2.1067 -9.1e-4,32.26147 -3.65802,2.10671 z m 69.13464,36.49605 -3.65801,-2.10671 v -32.26146 l 3.65801,-2.10671 z m -64.00724,0.47744 27.92919,16.12074 v 4.21436 l -31.5663,-18.22826 z m 29.43992,-50.9877 27.9292,16.12073 v 32.26147 l -27.9292,16.14118 -27.92919,-16.14118 v -32.24102 z m 1.49085,67.10821 27.9292,-16.14119 3.65801,2.10671 -31.58675,18.24871 z m 27.9292,-53.55027 -27.9292,-16.14118 v -4.21437 l 31.58675,18.2478 z m -30.90976,-16.14118 -27.9292,16.14118 -3.65801,-2.1067 31.58675,-18.2478 z"
       id="path2492-2"
       style="stroke-width:0.227177" />
    <path
       d="m 853.87076,392.95481 17.05512,-9.93902 c 1.43583,-0.83151 2.32062,-2.36582 2.32062,-4.02535 0,-1.65953 -0.88474,-3.19389 -2.32062,-4.02536 l -17.05512,-9.93901 c -1.43139,-0.82618 -3.19388,-0.83152 -4.62964,-0.0133 -1.43495,0.81821 -2.32948,2.33652 -2.34811,3.98901 v 19.97753 c 0.0186,1.65235 0.91314,3.17072 2.34811,3.98901 1.43583,0.8182 3.1982,0.81286 4.62964,-0.0133 z"
       id="path2494-6"
       style="stroke-width:0.227177" />
  </g>
  <g
     id="playButton003"
     transform="matrix(1,0,0,0.99681695,124.5,-346.79813)"
     inkscape:label="playButton003">
    <title
       id="title455">playButton003</title>
    <path
       style="opacity:1;fill:#ff9955;stroke-width:0.74026"
       d="m 692.43607,378.75224 c -1.04933,0 -35.93979,21.14995 -35.93979,21.14995 l -0.78699,42.82213 36.98907,21.41106 36.72679,-21.41106 -0.26229,-42.29991 z"
       id="path2902-9-2" />
    <path
       d="m 655.78999,442.85166 36.05761,20.8124 c 0.41796,0.24138 0.93356,0.24138 1.35152,0 l 36.178,-20.8124 c 0.22541,-0.13489 0.40999,-0.32657 0.53689,-0.5564 0.11359,-0.20766 0.17571,-0.43927 0.17926,-0.67622 v -41.74385 c -0.004,-0.23606 -0.0657,-0.46856 -0.17926,-0.67533 -0.12246,-0.20411 -0.29285,-0.37448 -0.49695,-0.49695 L 693.33902,377.791 c -0.41797,-0.24138 -0.93357,-0.24138 -1.35153,0 l -36.2189,20.8124 c -0.2041,0.12246 -0.37448,0.29286 -0.49695,0.49695 -0.11359,0.20677 -0.17482,0.43927 -0.17837,0.67533 v 41.74386 c 0.004,0.23694 0.0648,0.46855 0.17837,0.67621 0.1269,0.22984 0.31237,0.42153 0.53689,0.5564 z m 2.22652,-40.3717 3.65802,2.1067 -9.1e-4,32.26147 -3.65802,2.10671 z m 69.13464,36.49605 -3.65801,-2.10671 v -32.26146 l 3.65801,-2.10671 z m -64.00724,0.47744 27.92919,16.12074 v 4.21436 l -31.5663,-18.22826 z m 29.43992,-50.9877 27.9292,16.12073 v 32.26147 l -27.9292,16.14118 -27.92919,-16.14118 v -32.24102 z m 1.49085,67.10821 27.9292,-16.14119 3.65801,2.10671 -31.58675,18.24871 z m 27.9292,-53.55027 -27.9292,-16.14118 v -4.21437 l 31.58675,18.2478 z m -30.90976,-16.14118 -27.9292,16.14118 -3.65801,-2.1067 31.58675,-18.2478 z"
       id="path2492-2-2"
       style="fill:#ff6600;stroke-width:0.227177" />
    <path
       d="m 688.38995,434.64147 17.05512,-9.93902 c 1.43583,-0.83151 2.32062,-2.36582 2.32062,-4.02535 0,-1.65953 -0.88474,-3.19389 -2.32062,-4.02536 l -17.05512,-9.93901 c -1.43139,-0.82618 -3.19388,-0.83152 -4.62964,-0.0133 -1.43495,0.81821 -2.32948,2.33652 -2.34811,3.98901 v 19.97753 c 0.0186,1.65235 0.91314,3.17072 2.34811,3.98901 1.43583,0.8182 3.1982,0.81286 4.62964,-0.0133 z"
       id="path2494-6-0"
       style="fill:#ff6600;stroke-width:0.227177" />
  </g>
  <g
     id="g631"
     transform="matrix(5.8333333,0,0,5.8333333,-3946.6332,-3224.5801)">
    <g
       id="g510"
       transform="matrix(0.75,0,0,0.75,834.3169,569.55106)">
      <path
         stroke="#000000"
         d="M 0,0 H 16 M 0,1 h 1 m 14,0 h 1 M 0,2 h 1 m 14,0 h 1 M 0,3 h 1 m 14,0 h 1 M 0,4 h 1 m 14,0 h 1 M 0,5 h 1 m 14,0 h 1 M 0,6 h 1 m 14,0 h 1 M 0,7 h 1 m 14,0 h 1 M 0,8 h 1 m 14,0 h 1 M 0,9 h 1 m 14,0 h 1 M 0,10 h 1 m 14,0 h 1 M 0,11 h 1 m 14,0 h 1 M 0,12 h 1 m 14,0 h 1 M 0,13 h 1 m 14,0 h 1 M 0,14 h 1 m 14,0 h 1 M 0,15 h 16"
         id="path483" />
      <path
         stroke="#7d7ca3"
         d="M 1,1 H 14 M 1,2 H 13 M 1,3 H 3 M 1,4 H 3 M 1,5 H 3 M 1,6 H 3 M 1,7 H 3 M 1,8 H 3 M 1,9 h 2 m -2,1 h 2 m -2,1 h 2 m -2,1 h 2 m -2,1 h 1"
         id="path485" />
      <path
         stroke="#434a78"
         d="m 14,1 h 1 m -2,1 h 2 m -2,1 h 2 m -2,1 h 2 m -2,1 h 2 m -2,1 h 2 m -2,1 h 2 m -2,1 h 2 m -2,1 h 2 m -2,1 h 2 m -2,1 h 2 m -2,1 h 2 M 2,13 H 15 M 1,14 h 14"
         id="path487" />
      <path
         stroke="#9f99c0"
         d="M 3,3 H 13 M 3,4 h 5 m 1,0 h 4 M 3,5 h 4 m 3,0 h 3 M 3,6 h 3 m 4,0 h 3 M 3,7 h 2 m 6,0 h 2 M 3,8 h 1 m 8,0 h 1 M 3,9 h 1 m 8,0 H 12.35443 13 M 3,10 h 1 m 8,0 h 1 M 3,11 h 2 m 6,0 h 2 M 3,12 h 3 m 4,0 h 3"
         id="path489"
         sodipodi:nodetypes="ccccccccccccccccccccccccccccccccccccccc" />
      <path
         stroke="#5085d8"
         d="M 8,4 H 9 M 7,5 h 1 m 1,0 h 1 M 6,6 h 1 m 2,0 h 1 M 5,7 h 1 m 4,0 h 1 M 4,8 h 1 m 6,0 h 1 M 4,9 h 1 m 6,0 h 1 m -8,1 h 1 m 6,0 h 1 m -7,1 h 1 m 4,0 h 1 m -5,1 h 4"
         id="path491" />
      <path
         stroke="#66c9ff"
         d="M 8,5 H 9 M 7,6 H 9 M 6,7 h 2 m 1,0 h 1 M 5,8 h 4 m 1,0 h 1 M 5,9 h 5 m -5,1 h 5 m -4,1 h 3"
         id="path493" />
      <path
         stroke="#cdfdfd"
         d="m 8,7 h 1 m 0,1 h 1 m 0,1 h 1 m -1,1 h 1 m -2,1 h 1"
         id="path495" />
    </g>
  </g>
  <g
     id="g685"
     transform="matrix(4.375,0,0,4.375,1017.313,100.01269)">
    <path
       stroke="#000000"
       d="M 0,0 H 16 M 0,1 h 1 m 14,0 h 1 M 0,2 h 1 m 14,0 h 1 M 0,3 h 1 m 14,0 h 1 M 0,4 h 1 m 14,0 h 1 M 0,5 h 1 m 14,0 h 1 M 0,6 h 1 m 14,0 h 1 M 0,7 h 1 m 14,0 h 1 M 0,8 h 1 m 14,0 h 1 M 0,9 h 1 m 14,0 h 1 M 0,10 h 1 m 14,0 h 1 M 0,11 h 1 m 14,0 h 1 M 0,12 h 1 m 14,0 h 1 M 0,13 h 1 m 14,0 h 1 M 0,14 h 1 m 14,0 h 1 M 0,15 h 16"
       id="path655" />
    <path
       stroke="#7d7ca3"
       d="M 1,1 H 14 M 1,2 H 13 M 1,3 H 3 M 1,4 H 3 M 1,5 H 3 M 1,6 H 3 M 1,7 H 3 M 1,8 H 3 M 1,9 h 2 m -2,1 h 2 m -2,1 h 2 m -2,1 h 2 m -2,1 h 1"
       id="path657" />
    <path
       stroke="#434a78"
       d="m 14,1 h 1 m -2,1 h 2 m -2,1 h 2 m -2,1 h 2 m -2,1 h 2 m -2,1 h 2 m -2,1 h 2 m -2,1 h 2 m -2,1 h 2 m -2,1 h 2 m -2,1 h 2 m -2,1 h 2 M 2,13 H 15 M 1,14 h 14"
       id="path659" />
    <path
       stroke="#9f99c0"
       d="M 3,3 H 13 M 3,4 h 5 m 1,0 h 4 M 3,5 h 4 m 2,0 h 4 M 3,6 h 4 m 2,0 h 4 M 3,7 h 4 m 2,0 h 4 M 3,8 h 4 m 2,0 h 4 M 3,9 h 2 m 6,0 h 2 M 3,10 h 4 m 2,0 h 4 M 3,11 h 4 m 2,0 h 4 M 3,12 h 4 m 2,0 h 4"
       id="path661" />
    <path
       stroke="#bfbfbf"
       d="M 8,4 H 9 M 8,5 H 9 M 8,6 H 9 M 8,7 H 9 M 8,8 h 1"
       id="path663" />
    <path
       stroke="#ababab"
       d="M 7,5 H 8 M 7,6 H 8 M 7,7 H 8 M 7,8 h 1"
       id="path665" />
    <path
       stroke="#9c4100"
       d="m 5,9 h 6"
       id="path667" />
    <path
       stroke="#612800"
       d="M 7,10 H 9 M 7,11 H 9 M 7,12 H 9"
       id="path669" />
  </g>
  <g
     id="g781"
     transform="matrix(4.375,0,0,4.375,1122.6321,94.784076)">
    <path
       stroke="#000000"
       d="M 0,0 H 16 M 0,1 h 1 m 14,0 h 1 M 0,2 h 1 m 14,0 h 1 M 0,3 h 1 m 14,0 h 1 M 0,4 h 1 m 14,0 h 1 M 0,5 h 1 m 14,0 h 1 M 0,6 h 1 m 14,0 h 1 M 0,7 h 1 m 14,0 h 1 M 0,8 h 1 m 14,0 h 1 M 0,9 h 1 m 14,0 h 1 M 0,10 h 1 m 14,0 h 1 M 0,11 h 1 m 14,0 h 1 M 0,12 h 1 m 14,0 h 1 M 0,13 h 1 m 14,0 h 1 M 0,14 h 1 m 14,0 h 1 M 0,15 h 16"
       id="path751" />
    <path
       stroke="#7d7ca3"
       d="M 1,1 H 14 M 1,2 H 13 M 1,3 H 3 M 1,4 H 3 M 1,5 H 3 M 1,6 H 3 M 1,7 H 3 M 1,8 H 3 M 1,9 h 2 m -2,1 h 2 m -2,1 h 2 m -2,1 h 2 m -2,1 h 1"
       id="path753" />
    <path
       stroke="#434a78"
       d="m 14,1 h 1 m -2,1 h 2 m -2,1 h 2 m -2,1 h 2 m -2,1 h 2 m -2,1 h 2 m -2,1 h 2 m -2,1 h 2 m -2,1 h 2 m -2,1 h 2 m -2,1 h 2 m -2,1 h 2 M 2,13 H 15 M 1,14 h 14"
       id="path755" />
    <path
       stroke="#9f99c0"
       d="M 3,3 H 13 M 3,4 h 1 m 1,0 h 2 m 1,0 h 5 M 3,5 h 4 m 2,0 h 1 m 1,0 h 2 M 4,6 h 2 m 3,0 h 4 M 3,7 h 3 m 4,0 h 3 M 3,8 h 2 m 6,0 h 2 M 3,9 h 2 m 6,0 h 2 M 3,10 h 1 m 7,0 h 2 M 3,11 h 1 m 6,0 h 3 M 3,12 h 2 m 5,0 h 3"
       id="path757" />
    <path
       stroke="#ec6641"
       d="m 4,4 h 1 m 5,1 h 1 M 3,6 H 4 M 7,6 H 8 M 7,7 H 9 M 6,8 h 1 m 1,0 h 2 M 9,9 h 1"
       id="path759" />
    <path
       stroke="#d24348"
       d="M 7,4 H 8 M 7,5 H 9 M 6,6 H 7 M 8,6 H 9 M 6,7 h 1 m 2,0 h 1 M 5,8 h 1 m 4,0 h 1 M 5,9 h 1 m 4,0 h 1 m -7,1 h 1 m 5,0 h 1 m -7,1 h 2 m 3,0 h 1 m -5,1 h 5"
       id="path761" />
    <path
       stroke="#f3a65d"
       d="M 7,8 H 8 M 6,9 h 3 m -4,1 h 2 m 1,0 h 2"
       id="path763" />
    <path
       stroke="#fef28c"
       d="M 7,10 H 8 M 6,11 H 9"
       id="path765" />
  </g>
  <g
     id="g877"
     transform="matrix(4.375,0,0,4.375,1232.4328,103.7474)">
    <path
       stroke="#000000"
       d="M 0,0 H 16 M 0,1 h 1 m 14,0 h 1 M 0,2 h 1 m 14,0 h 1 M 0,3 h 1 m 14,0 h 1 M 0,4 h 1 m 14,0 h 1 M 0,5 h 1 m 14,0 h 1 M 0,6 h 1 m 14,0 h 1 M 0,7 h 1 m 14,0 h 1 M 0,8 h 1 m 14,0 h 1 M 0,9 h 1 m 14,0 h 1 M 0,10 h 1 m 14,0 h 1 M 0,11 h 1 m 14,0 h 1 M 0,12 h 1 m 14,0 h 1 M 0,13 h 1 m 14,0 h 1 M 0,14 h 1 m 14,0 h 1 M 0,15 h 16"
       id="path847" />
    <path
       stroke="#7d7ca3"
       d="M 1,1 H 14 M 1,2 H 13 M 1,3 H 3 M 1,4 H 3 M 1,5 H 3 M 1,6 H 3 M 1,7 H 3 M 1,8 H 3 M 1,9 h 2 m -2,1 h 2 m -2,1 h 2 m -2,1 h 2 m -2,1 h 1"
       id="path849" />
    <path
       stroke="#434a78"
       d="m 14,1 h 1 m -2,1 h 2 m -2,1 h 2 m -2,1 h 2 m -2,1 h 2 m -2,1 h 2 m -2,1 h 2 m -2,1 h 2 m -2,1 h 2 m -2,1 h 2 m -2,1 h 2 m -2,1 h 2 M 2,13 H 15 M 1,14 h 14"
       id="path851" />
    <path
       stroke="#9f99c0"
       d="M 3,3 H 13 M 3,4 h 5 m 1,0 h 4 M 3,5 h 4 m 3,0 h 3 M 3,6 h 3 m 5,0 h 2 M 3,7 h 2 m 7,0 h 1 M 3,8 h 1 m 8,0 h 1 M 3,9 h 1 m 8,0 h 1 M 3,10 h 1 m 8,0 h 1 M 3,11 h 2 m 6,0 h 2 M 3,12 h 3 m 2,0 h 5"
       id="path853" />
    <path
       stroke="#4d8d6a"
       d="M 8,4 H 9 M 7,5 h 1 m 1,0 h 1 M 6,6 h 1 m 3,0 h 1 M 5,7 h 1 m 5,0 h 1 M 4,8 h 1 m 6,0 h 1 M 4,9 h 1 m 6,0 h 1 m -8,1 h 2 m 5,0 h 1 m -7,1 h 2 m 1,0 h 3"
       id="path855" />
    <path
       stroke="#7ec569"
       d="M 8,5 H 9 M 7,6 H 9 M 6,7 h 2 m 1,0 h 1 M 5,8 h 3 m 1,0 h 1 M 5,9 h 3 m 1,0 h 1 m -4,1 h 1 m 2,0 h 2"
       id="path857" />
    <path
       stroke="#c5fe95"
       d="m 9,6 h 1 m 0,1 h 1 m -1,1 h 1 m -1,1 h 1"
       id="path859" />
    <path
       stroke="#1e7820"
       d="M 8,7 H 9 M 8,8 H 9 M 8,9 h 1 m -2,1 h 2 m -2,1 h 1 m -2,1 h 2"
       id="path861" />
  </g>
  <g
     id="g973"
     transform="matrix(4.375,0,0,4.375,1321.3191,105.24129)">
    <path
       stroke="#000000"
       d="M 0,0 H 16 M 0,1 h 1 m 14,0 h 1 M 0,2 h 1 m 14,0 h 1 M 0,3 h 1 m 14,0 h 1 M 0,4 h 1 m 14,0 h 1 M 0,5 h 1 m 14,0 h 1 M 0,6 h 1 m 14,0 h 1 M 0,7 h 1 m 14,0 h 1 M 0,8 h 1 m 14,0 h 1 M 0,9 h 1 m 14,0 h 1 M 0,10 h 1 m 14,0 h 1 M 0,11 h 1 m 14,0 h 1 M 0,12 h 1 m 14,0 h 1 M 0,13 h 1 m 14,0 h 1 M 0,14 h 1 m 14,0 h 1 M 0,15 h 16"
       id="path943" />
    <path
       stroke="#7d7ca3"
       d="M 1,1 H 14 M 1,2 H 13 M 1,3 H 3 M 1,4 H 3 M 1,5 H 3 M 1,6 H 3 M 1,7 H 3 M 1,8 H 3 M 1,9 h 2 m -2,1 h 2 m -2,1 h 2 m -2,1 h 2 m -2,1 h 1"
       id="path945" />
    <path
       stroke="#434a78"
       d="m 14,1 h 1 m -2,1 h 2 m -2,1 h 2 m -2,1 h 2 m -2,1 h 2 m -2,1 h 2 m -2,1 h 2 m -2,1 h 2 m -2,1 h 2 m -2,1 h 2 m -2,1 h 2 m -2,1 h 2 M 2,13 H 15 M 1,14 h 14"
       id="path947" />
    <path
       stroke="#9f99c0"
       d="M 3,3 H 13 M 3,4 h 4 m 2,0 h 4 M 3,5 h 2 m 6,0 h 2 M 3,6 h 1 m 8,0 h 1 M 3,7 h 1 m 8,0 h 1 M 3,8 h 1 m 8,0 h 1 M 3,9 h 1 m 8,0 h 1 M 3,10 h 2 m 6,0 h 2 M 3,11 h 2 m 6,0 h 2 M 3,12 h 4 m 2,0 h 4"
       id="path949" />
    <path
       stroke="#696969"
       d="M 7,4 H 9 M 5,5 h 2 m 2,0 h 2 M 4,6 h 1 m 6,0 h 1 M 4,7 h 1 m 6,0 h 1 M 4,8 h 1 m 6,0 h 1 M 4,9 h 2 m 4,0 h 2 m -7,1 h 1 m 4,0 h 1 m -6,1 h 2 m 2,0 h 2 m -4,1 h 2"
       id="path951" />
    <path
       stroke="#787878"
       d="M 7,5 H 8 M 5,6 H 8 M 5,7 H 8 M 5,8 H 8 M 6,9 h 2 m -2,1 h 2 m -1,1 h 1"
       id="path953" />
    <path
       stroke="#9e9e9e"
       d="m 8,5 h 1 m 0,1 h 2 m -1,1 h 1 m -1,1 h 1"
       id="path955" />
    <path
       stroke="#8a8a8a"
       d="M 8,6 H 9 M 8,7 h 2 M 8,8 h 2 M 8,9 h 2 m -2,1 h 2 m -2,1 h 1"
       id="path957" />
  </g>
  <g
     id="g1112"
     transform="matrix(4.375,0,0,4.375,1266.0453,270.31587)">
    <path
       stroke="#000000"
       d="M 0,0 H 16 M 0,1 h 1 m 14,0 h 1 M 0,2 h 1 m 14,0 h 1 M 0,3 h 1 m 14,0 h 1 M 0,4 h 1 m 14,0 h 1 M 0,5 h 1 m 14,0 h 1 M 0,6 h 1 m 14,0 h 1 M 0,7 h 1 m 14,0 h 1 M 0,8 h 1 m 14,0 h 1 M 0,9 h 1 m 14,0 h 1 M 0,10 h 1 m 14,0 h 1 M 0,11 h 1 m 14,0 h 1 M 0,12 h 1 m 14,0 h 1 M 0,13 h 1 m 14,0 h 1 M 0,14 h 1 m 14,0 h 1 M 0,15 h 16"
       id="path1079" />
    <path
       stroke="#7d7ca3"
       d="M 1,1 H 14 M 1,2 H 13 M 1,3 H 3 M 1,4 H 3 M 1,5 H 3 M 1,6 H 3 M 1,7 H 3 M 1,8 H 3 M 1,9 h 2 m -2,1 h 2 m -2,1 h 2 m -2,1 h 2 m -2,1 h 1"
       id="path1081" />
    <path
       stroke="#434a78"
       d="m 14,1 h 1 m -2,1 h 2 m -2,1 h 2 m -2,1 h 2 m -2,1 h 2 m -2,1 h 2 m -2,1 h 2 m -2,1 h 2 m -2,1 h 2 m -2,1 h 2 m -2,1 h 2 m -2,1 h 2 M 2,13 H 15 M 1,14 h 14"
       id="path1083" />
    <path
       stroke="#9f99c0"
       d="M 3,3 H 13 M 3,4 h 2 m 5,0 h 3 M 3,5 h 2 m 5,0 h 3 M 3,6 h 2 m 5,0 h 3 M 4,7 h 1 m 5,0 h 3 M 3,8 h 2 m 7,0 h 1 M 3,10 h 2 m -2,1 h 2 m 2,1 h 3 m 2,0 h 1"
       id="path1085" />
    <path
       stroke="#663931"
       d="m 5,4 h 5 M 5,5 h 1 m 3,0 h 1 M 5,6 h 1 m 3,0 h 1 M 5,7 h 1 m 3,0 h 1 M 5,8 h 1 m 3,0 h 3 M 5,9 h 1 m 6,0 h 1 m -8,1 h 1 m 6,0 h 1 m -1,1 h 1"
       id="path1087" />
    <path
       stroke="#d9a066"
       d="M 6,5 H 9 M 6,6 H 9 M 6,7 H 7 M 6,8 H 9 M 6,9 h 3 m 1,0 h 2 m -6,1 h 6"
       id="path1089" />
    <path
       stroke="#ffffff"
       d="M 3,7 H 4 M 3,9 h 2 m -2,3 h 2"
       id="path1091" />
    <path
       stroke="#59322b"
       d="m 7,7 h 2 m 0,2 h 1"
       id="path1093" />
    <path
       stroke="#472822"
       d="m 5,11 h 7 m -7,1 h 2 m 3,0 h 2"
       id="path1095" />
  </g>
</svg>
